# This file uses centimeters as units for non-parametric coordinates.

mtllib acid_pool.mtl
g default
v -13.687028 -0.017092 1.475749
v -9.747506 0.000000 1.267122
v -11.520394 0.014519 -2.660940
v -11.489386 0.011030 1.954513
v -9.035192 -0.009053 -1.111542
v -14.147934 0.016303 -1.435494
v -11.561440 0.000000 0.000000
v -13.974491 -0.003615 0.051875
v -12.745184 -0.012606 2.122486
v -11.561440 0.000000 0.900976
v -12.619299 0.000000 -0.610755
v -12.619299 0.000000 0.610756
v -10.339928 -0.000000 2.115719
v -9.118418 0.000000 -0.000000
v -10.503580 0.000000 -0.610756
v -10.805366 0.000000 0.656366
v -10.311660 0.029019 -2.548058
v -12.783158 0.030840 -2.573397
v -11.561440 0.000000 -1.221511
v -13.148229 0.000000 -0.916133
v -14.187860 -0.001810 -0.589602
v -13.311881 0.000000 0.305378
v -12.619299 0.000000 0.000000
v -13.230055 0.000000 -0.305378
v -14.010824 -0.019862 0.932399
v -13.214189 -0.010448 1.878096
v -12.701125 0.000000 1.363237
v -13.270968 0.000000 0.986997
v -12.083693 0.007958 1.914604
v -11.561440 -0.000000 1.511732
v -12.090370 0.000000 0.916133
v -12.131282 0.000000 1.277217
v -11.561440 0.000000 0.610756
v -12.090370 0.000000 -0.305378
v -12.090370 0.000000 0.305378
v -10.929139 -0.000000 2.359778
v -10.421754 0.000000 1.363237
v -11.032510 0.000000 0.916133
v -10.991597 -0.000000 1.277217
v -9.833962 0.000000 1.727477
v -9.503447 0.000000 0.677911
v -10.112785 0.000000 0.350988
v -10.153698 0.000000 1.032607
v -9.201662 0.000000 -0.632301
v -9.974650 0.000000 -0.916134
v -10.503580 0.000000 -0.000000
v -9.892825 0.000000 -0.305378
v -11.032510 0.000000 -0.305378
v -11.032510 0.000000 0.305378
v -9.350635 0.030810 -2.213435
v -10.950684 0.000000 -1.668615
v -11.032510 0.000000 -0.916133
v -10.462668 0.000000 -1.292374
v -10.941894 0.014516 -2.574454
v -12.165454 0.029036 -2.792382
v -12.172195 0.000000 -1.668615
v -11.561440 0.000000 -1.973993
v -13.654397 0.048951 -2.432231
v -12.090370 0.000000 -0.916133
v -12.660212 0.000000 -1.292374
v -11.561440 0.000000 -0.610756
vt 0.066987 0.250000
vt 0.933013 0.250000
vt 0.500000 1.000000
vt 0.500000 0.000000
vt 0.933013 0.750000
vt 0.066987 0.750000
vt 0.500000 0.500000
vt 0.000000 0.500000
vt 0.250000 0.066987
vt 0.500000 0.250000
vt 0.283494 0.625000
vt 0.283494 0.375000
vt 0.750000 0.066987
vt 1.000000 0.500000
vt 0.716506 0.625000
vt 0.716506 0.375000
vt 0.750000 0.933013
vt 0.250000 0.933013
vt 0.500000 0.750000
vt 0.175240 0.687500
vt 0.017037 0.629409
vt 0.141747 0.437500
vt 0.283494 0.500000
vt 0.158494 0.562500
vt 0.017037 0.370590
vt 0.146447 0.146447
vt 0.266747 0.220994
vt 0.150120 0.297997
vt 0.370591 0.017037
vt 0.500000 0.125000
vt 0.391747 0.312500
vt 0.383373 0.172997
vt 0.500000 0.375000
vt 0.391747 0.562500
vt 0.391747 0.437500
vt 0.629410 0.017037
vt 0.733253 0.220994
vt 0.608253 0.312500
vt 0.616627 0.172997
vt 0.853553 0.146447
vt 0.982963 0.370591
vt 0.858253 0.437500
vt 0.849880 0.297997
vt 0.982963 0.629410
vt 0.824759 0.687500
vt 0.716506 0.500000
vt 0.841506 0.562500
vt 0.608253 0.562500
vt 0.608253 0.437500
vt 0.853553 0.853553
vt 0.625000 0.841506
vt 0.608253 0.687500
vt 0.724880 0.764503
vt 0.629409 0.982963
vt 0.370590 0.982963
vt 0.375000 0.841506
vt 0.500000 0.904006
vt 0.146447 0.853553
vt 0.391747 0.687500
vt 0.275120 0.764503
vt 0.500000 0.625000
vn 0.000000 1.000000 0.000000
vn 0.000000 1.000000 0.000000
vn 0.004693 0.999817 0.018541
vn -0.000334 0.999989 0.004781
vn 0.006191 0.999692 0.024044
vn 0.000611 0.999952 0.009817
vn -0.009718 0.999940 0.005141
vn -0.007768 0.999961 0.004197
vn 0.000000 1.000000 0.000000
vn -0.021277 0.999713 0.011033
vn -0.012273 0.999895 0.007684
vn -0.026514 0.999572 0.012384
vn -0.011519 0.999841 0.013595
vn -0.011237 0.999900 0.008535
vn -0.006915 0.999959 0.005873
vn -0.008855 0.999947 -0.005157
vn -0.004727 0.999987 -0.001872
vn 0.008249 0.999906 -0.010977
vn 0.004594 0.999952 -0.008685
vn 0.000000 1.000000 0.000000
vn 0.000000 1.000000 0.000000
vn 0.000000 1.000000 0.000000
vn 0.000000 1.000000 0.000000
vn 0.000000 1.000000 0.000000
vn 0.000000 1.000000 0.000000
vn -0.000000 1.000000 0.000000
vn 0.002655 0.999995 -0.001980
vn 0.003984 0.999988 -0.002970
vn -0.000000 1.000000 0.000000
vn -0.000000 1.000000 0.000000
vn -0.000000 1.000000 0.000000
vn -0.000000 1.000000 0.000000
vn -0.000000 1.000000 0.000000
vn 0.000000 1.000000 0.000000
vn 0.000000 1.000000 0.000000
vn 0.000000 1.000000 0.000000
vn 0.000000 1.000000 0.000000
vn 0.001804 0.999986 -0.004912
vn 0.000596 0.999998 -0.001624
vn 0.003100 0.999842 0.017488
vn 0.002406 0.999908 0.013365
vn 0.000000 1.000000 0.000000
vn 0.000000 1.000000 0.000000
vn 0.000000 1.000000 0.000000
vn 0.000000 1.000000 0.000000
vn 0.000000 1.000000 0.000000
vn -0.003849 0.999853 0.016697
vn -0.003843 0.999714 0.023589
vn -0.012826 0.999712 0.020305
vn -0.008953 0.999876 0.012932
vn 0.000000 1.000000 0.000000
vn -0.010443 0.999798 0.017183
vn 0.001791 0.999886 0.014964
vn 0.008015 0.999734 0.021609
vn 0.011644 0.999618 0.025065
vn 0.018626 0.999555 0.023292
vn 0.011932 0.999800 0.016053
vn 0.013758 0.999557 0.026411
vn 0.010498 0.999768 0.018798
vn 0.000000 1.000000 0.000000
vn 0.000000 1.000000 0.000000
s 1
g pDisc1
usemtl initialShadingGroup
f 23/23/1 11/11/2 20/20/3 24/24/4
f 20/20/3 6/6/5 21/21/6 24/24/4
f 21/21/6 8/8/7 22/22/8 24/24/4
f 22/22/8 12/12/9 23/23/1 24/24/4
f 22/22/8 8/8/7 25/25/10 28/28/11
f 25/25/10 1/1/12 26/26/13 28/28/11
f 26/26/13 9/9/14 27/27/15 28/28/11
f 27/27/15 12/12/9 22/22/8 28/28/11
f 27/27/15 9/9/14 29/29/16 32/32/17
f 29/29/16 4/4/18 30/30/19 32/32/17
f 30/30/19 10/10/20 31/31/21 32/32/17
f 31/31/21 12/12/9 27/27/15 32/32/17
f 31/31/21 10/10/20 33/33/22 35/35/23
f 33/33/22 7/7/24 34/34/25 35/35/23
f 34/34/25 11/11/2 23/23/1 35/35/23
f 23/23/1 12/12/9 31/31/21 35/35/23
f 38/38/26 10/10/20 30/30/19 39/39/27
f 30/30/19 4/4/18 36/36/28 39/39/27
f 36/36/28 13/13/29 37/37/30 39/39/27
f 37/37/30 16/16/31 38/38/26 39/39/27
f 37/37/30 13/13/29 40/40/32 43/43/33
f 40/40/32 2/2/34 41/41/35 43/43/33
f 41/41/35 14/14/36 42/42/37 43/43/33
f 42/42/37 16/16/31 37/37/30 43/43/33
f 42/42/37 14/14/36 44/44/38 47/47/39
f 44/44/38 5/5/40 45/45/41 47/47/39
f 45/45/41 15/15/42 46/46/43 47/47/39
f 46/46/43 16/16/31 42/42/37 47/47/39
f 46/46/43 15/15/42 48/48/44 49/49/45
f 48/48/44 7/7/24 33/33/22 49/49/45
f 33/33/22 10/10/20 38/38/26 49/49/45
f 38/38/26 16/16/31 46/46/43 49/49/45
f 52/52/46 15/15/42 45/45/41 53/53/47
f 45/45/41 5/5/40 50/50/48 53/53/47
f 50/50/48 17/17/49 51/51/50 53/53/47
f 51/51/50 19/19/51 52/52/46 53/53/47
f 51/51/50 17/17/49 54/54/52 57/57/53
f 54/54/52 3/3/54 55/55/55 57/57/53
f 55/55/55 18/18/56 56/56/57 57/57/53
f 56/56/57 19/19/51 51/51/50 57/57/53
f 56/56/57 18/18/56 58/58/58 60/60/59
f 58/58/58 6/6/5 20/20/3 60/60/59
f 20/20/3 11/11/2 59/59/60 60/60/59
f 59/59/60 19/19/51 56/56/57 60/60/59
f 59/59/60 11/11/2 34/34/25 61/61/61
f 34/34/25 7/7/24 48/48/44 61/61/61
f 48/48/44 15/15/42 52/52/46 61/61/61
f 52/52/46 19/19/51 59/59/60 61/61/61
