# This file uses centimeters as units for non-parametric coordinates.

mtllib Obstacle_icicle_medium_smooth.mtl
g default
v -1.198558 0.000000 0.457458
v 0.000000 0.000000 0.966453
v 1.143746 0.014933 0.417252
v -0.744865 0.625135 0.457458
v 0.000000 0.625135 0.759393
v 0.704355 0.640069 0.417252
v -0.654276 1.250271 0.454881
v 0.000598 1.250271 0.616682
v 0.575471 1.265204 0.414359
v -0.759999 1.250271 -0.002321
v 0.661435 1.250271 -0.006107
v -0.675521 1.250271 -0.460225
v 0.000598 1.250271 -0.622156
v 0.529131 1.250271 -0.446505
v -0.772993 0.625135 -0.463901
v 0.000000 0.625135 -0.773337
v 0.658014 0.625135 -0.450828
v -1.221570 0.000000 -0.463901
v 0.000000 0.000000 -0.899922
v 1.094490 0.000000 -0.450828
v -1.496701 0.000000 -0.003221
v 0.000000 0.000000 0.000000
v 1.459512 0.000000 -0.007160
v 0.790319 0.625135 -0.007160
v -0.882305 0.625135 -0.003221
v 0.213205 8.700945 0.027132
v 0.257199 8.734047 0.042258
v 0.260462 8.739852 -0.003340
v 0.193852 8.683596 -0.003340
v 0.305169 8.730073 0.022690
v 0.309311 8.730476 -0.003340
v 0.259784 8.729804 -0.042226
v 0.217782 8.702399 -0.033811
v 0.291120 8.726282 -0.035146
v 0.202486 8.265292 0.059945
v 0.277199 8.265292 0.072153
v 0.325799 8.275770 0.059864
v 0.325799 8.265292 -0.003340
v 0.325799 8.265292 -0.082737
v 0.251576 8.265292 -0.082737
v 0.202486 8.265292 -0.066625
v 0.150349 8.265292 -0.003340
v 0.151896 7.695107 0.075306
v 0.247225 7.698611 0.125651
v 0.347606 7.717423 0.088070
v 0.385211 7.702386 -0.005075
v 0.321550 7.702386 -0.102559
v 0.247213 7.698705 -0.132871
v 0.151889 7.695139 -0.080731
v 0.067411 7.695139 -0.002737
v 0.045481 6.962059 0.095134
v 0.208529 6.963078 0.153725
v 0.338529 6.979945 0.125622
v 0.370429 6.964907 0.002455
v 0.314224 6.964907 -0.112931
v 0.208517 6.963105 -0.144867
v 0.065877 6.962059 -0.089741
v -0.035263 6.962059 0.002767
v -0.110729 5.396520 0.206251
v 0.145567 5.396139 0.260686
v 0.296782 5.403507 0.173484
v 0.307679 5.388470 0.022046
v 0.241440 5.396455 -0.165628
v 0.103613 5.396520 -0.212642
v -0.110729 5.396520 -0.157898
v -0.195207 5.396520 0.024611
v -0.392535 2.905384 0.325594
v 0.068339 2.905384 0.432139
v 0.428315 2.920317 0.294122
v 0.497687 2.905384 0.014959
v 0.382010 2.905384 -0.282441
v 0.068339 2.905384 -0.398579
v -0.413779 2.905384 -0.291657
v -0.497619 2.905384 0.018190
v -0.467785 2.473232 0.366965
v 0.044049 2.473232 0.489808
v 0.417984 2.488165 0.331747
v 0.502202 2.473232 0.009115
v 0.371746 2.473232 -0.333066
v 0.044049 2.473232 -0.468400
v -0.489029 2.473232 -0.345313
v -0.573330 2.473232 0.012128
v -0.707859 0.858798 0.457458
v 0.000000 0.858798 0.679067
v 0.614255 0.873731 0.417252
v 0.700219 0.858798 -0.007160
v 0.567914 0.858798 -0.450828
v 0.000000 0.858798 -0.688559
v -0.729363 0.858798 -0.463901
v -0.814730 0.858798 -0.003221
v -0.845954 0.484923 0.457458
v 0.000000 0.484923 0.794251
v 0.824489 0.499856 0.417252
v 0.910452 0.484923 -0.007160
v 0.778148 0.484923 -0.450828
v 0.000000 0.484923 -0.790347
v -0.878163 0.484923 -0.463901
v -1.009947 0.484923 -0.003221
v -0.921698 0.305462 0.457458
v 0.000000 0.305462 0.850238
v 0.944622 0.320396 0.417252
v 1.115574 0.305462 -0.007160
v 0.898282 0.305462 -0.450828
v 0.000000 0.305462 -0.844568
v -0.952727 0.305462 -0.463901
v -1.151181 0.305462 -0.003221
v -0.153497 5.014453 0.213838
v -0.251361 5.014453 0.025474
v -0.174742 5.014453 -0.163844
v 0.110899 5.014453 -0.230419
v 0.257068 5.011188 -0.160281
v 0.347653 5.014453 0.022279
v 0.301513 5.029386 0.190293
v 0.146987 5.014453 0.280264
v -1.052971 0.228490 0.457458
v 0.000000 0.228490 0.890336
v 1.080432 0.243423 0.417252
v 1.358270 0.228490 -0.007160
v 1.033432 0.228490 -0.450828
v 0.000000 0.228490 -0.870608
v -1.081007 0.228490 -0.463901
v -1.351419 0.228490 -0.003221
v -1.152668 0.115865 0.457458
v 0.000000 0.115865 0.944432
v 1.143746 0.130798 0.417252
v 1.459512 0.115865 -0.007160
v 1.094490 0.115865 -0.450828
v 0.000000 0.115865 -0.893425
v -1.177155 0.115865 -0.463901
v -1.468252 0.115865 -0.003221
v -0.256364 3.853261 0.268186
v 0.106574 3.853261 0.353387
v 0.334405 3.868194 0.241748
v 0.427573 3.853261 0.021402
v 0.353326 3.853261 -0.215027
v 0.106574 3.853261 -0.306161
v -0.277609 3.853261 -0.220157
v -0.358377 3.853261 0.024938
vt 0.911485 0.801882
vt 0.280713 0.456143
vt 0.276345 0.488521
vt 0.913464 0.830194
vt 0.477204 0.512937
vt 0.444791 0.538711
vt 0.970978 0.205646
vt 0.269215 0.543699
vt 0.905052 0.281720
vt 0.923189 0.202501
vt 0.524664 0.664360
vt 0.882047 0.351001
vt 0.026742 0.032954
vt 0.021454 0.037495
vt 0.054842 0.831443
vt 0.029664 0.029041
vt 0.020099 0.043688
vt 0.018875 0.046664
vt 0.015284 0.054166
vt 0.015325 0.060374
vt 0.017608 0.050985
vt 0.928889 0.089672
vt 0.805432 0.505122
vt 0.379120 0.901407
vt 0.757144 0.877093
vt 0.840646 0.448417
vt 0.215121 0.913464
vt 0.752201 0.837676
vt 0.380676 0.836115
vt 0.381257 0.798719
vt 0.750601 0.808948
vt 0.188190 0.852339
vt 0.156158 0.815264
vt 0.738552 0.706316
vt 0.383865 0.666828
vt 0.096550 0.932536
vt 0.821652 0.671138
vt 0.070277 0.685337
vt 0.570877 0.478959
vt 0.101958 0.989464
vt 0.909894 0.697710
vt 0.166261 0.950716
vt 0.580859 0.588452
vt 0.583244 0.615213
vt 0.585858 0.651341
vt 0.864166 0.398850
vt 0.829568 0.790586
vt 0.831713 0.822909
vt 0.833960 0.863873
vt 0.927837 0.146118
vt 0.078525 0.045614
vt 0.076045 0.054516
vt 0.080692 0.035848
vt 0.073027 0.059992
vt 0.071297 0.067614
vt 0.063215 0.084444
vt 0.060035 0.089874
vt 0.067531 0.076512
vt 0.147203 0.058961
vt 0.143054 0.071271
vt 0.136566 0.082626
vt 0.133810 0.094513
vt 0.128167 0.107358
vt 0.124728 0.116431
vt 0.119362 0.128453
vt 0.150892 0.045562
vt 0.235235 0.077934
vt 0.228275 0.097759
vt 0.220550 0.112042
vt 0.216420 0.127020
vt 0.210774 0.141518
vt 0.206115 0.154068
vt 0.199113 0.171237
vt 0.239278 0.063603
vt 0.419660 0.127793
vt 0.409670 0.158131
vt 0.401228 0.177735
vt 0.396123 0.195732
vt 0.386004 0.217931
vt 0.379186 0.234348
vt 0.368283 0.258897
vt 0.425247 0.104027
vt 0.604488 0.164872
vt 0.592410 0.208822
vt 0.454339 0.172651
vt 0.465219 0.137026
vt 0.581037 0.237748
vt 0.445480 0.192533
vt 0.572177 0.265619
vt 0.439793 0.212922
vt 0.559952 0.293158
vt 0.430238 0.235732
vt 0.544948 0.321284
vt 0.421371 0.253359
vt 0.612247 0.101708
vt 0.404840 0.284878
vt 0.609701 0.133077
vt 0.470737 0.111992
vt 0.773719 0.187647
vt 0.757851 0.249683
vt 0.706006 0.237041
vt 0.720618 0.181057
vt 0.741028 0.296852
vt 0.689808 0.280862
vt 0.726632 0.335880
vt 0.678175 0.313639
vt 0.707157 0.376982
vt 0.661837 0.348636
vt 0.685293 0.414905
vt 0.642042 0.384138
vt 0.778610 0.098270
vt 0.608941 0.434358
vt 0.777969 0.142883
vt 0.725093 0.141511
vt 0.912408 0.769676
vt 0.286310 0.414017
vt 0.511966 0.479146
vt 0.577209 0.549539
vt 0.123405 0.768146
vt 0.382258 0.749268
vt 0.745896 0.777150
vt 0.827100 0.751848
vt 0.908412 0.744849
vt 0.288832 0.394753
vt 0.544555 0.465904
vt 0.573537 0.515363
vt 0.088824 0.745662
vt 0.382689 0.727880
vt 0.746181 0.752426
vt 0.824500 0.717117
vt 0.907793 0.719121
vt 0.292467 0.367063
vt 0.509443 0.529687
vt 0.571823 0.494730
vt 0.072058 0.716067
vt 0.383292 0.697529
vt 0.743280 0.727216
vt 0.822767 0.690795
vt 0.182480 0.923932
vt 0.570807 0.418918
vt 0.008370 0.940727
vt 0.028511 0.966192
vt 0.158492 0.899845
vt 0.021997 0.912051
vt 0.091508 0.879527
vt 0.295969 0.340742
vt 0.520579 0.362381
vt 0.473639 0.087380
vt 0.712888 0.727961
vt 0.726724 0.698143
vt 0.686211 0.756806
vt 0.428628 0.079760
vt 0.652312 0.777409
vt 0.629005 0.823473
vt 0.581809 0.920021
vt 0.599168 0.859118
vt 0.647196 0.469623
vt 0.726209 0.102560
vt 0.241017 0.047022
vt 0.151727 0.031641
vt 0.081257 0.025893
vt 0.755636 0.573278
vt 0.024539 0.829336
vt 0.028746 0.854703
vt 0.054137 0.869131
vt 0.052422 0.764980
vt 0.029424 0.789612
vt 0.027711 0.024182
vt 0.074774 0.866104
vt 0.089684 0.827663
vt 0.077053 0.784387
vt 0.975762 0.148351
vt 0.102945 0.539117
vt 0.790076 0.606725
vt 0.976955 0.091384
vt 0.845352 0.532530
vt 0.883735 0.468788
vt 0.907845 0.418330
vt 0.926188 0.369410
vt 0.952016 0.293410
vt 0.012169 0.364778
vt 0.032676 0.391802
vt 0.095958 0.486398
vt 0.912403 0.869720
vt 0.002848 0.338322
vt 0.644888 0.521003
vt 0.649907 0.504366
vt 0.563941 0.444134
vt 0.513900 0.548873
vt 0.643520 0.540383
vt 0.514938 0.571570
vt 0.059824 0.412741
vt 0.647137 0.562624
vt 0.518877 0.602326
vt 0.075306 0.453598
vt 0.648481 0.593527
vt 0.520936 0.628528
vt 0.652610 0.655649
vt 0.651138 0.619655
vt 0.413099 0.585216
vt 0.502191 0.513805
vn -0.576142 0.383955 0.721553
vn 0.022505 0.272284 0.961954
vn 0.024035 0.249803 0.967998
vn -0.597557 0.301164 0.743119
vn 0.576897 0.453457 0.679387
vn 0.635463 0.372971 0.676077
vn -0.636499 0.167147 0.752948
vn 0.028874 0.153790 0.987682
vn 0.027294 0.105371 0.994058
vn -0.624577 0.141404 0.768055
vn 0.672604 0.191824 0.714708
vn 0.696702 0.121219 0.707045
vn -0.481406 0.127949 0.867108
vn 0.030059 0.155482 0.987381
vn -0.323531 0.944937 -0.049208
vn -0.991303 0.128796 -0.027029
vn 0.762235 0.134376 0.633199
vn 0.991623 0.107765 -0.071208
vn -0.091042 0.171676 -0.980938
vn -0.529970 0.143720 -0.835749
vn 0.683697 0.143518 -0.715515
vn -0.621389 0.155780 -0.767859
vn 0.007231 0.122659 -0.992423
vn 0.010555 0.161476 -0.986820
vn -0.635187 0.178681 -0.751405
vn 0.690091 0.132291 -0.711529
vn 0.669596 0.194077 -0.716921
vn -0.600209 0.296401 -0.742897
vn 0.007489 0.228809 -0.973443
vn 0.008384 0.242747 -0.970053
vn -0.575269 0.378135 -0.725313
vn 0.636942 0.353385 -0.685145
vn 0.571212 0.444440 -0.690065
vn -0.071668 -0.991853 -0.105311
vn 0.001070 -0.980160 -0.198206
vn 0.002085 -0.999993 0.003126
vn -0.085598 -0.996328 0.002067
vn 0.074191 -0.989786 -0.121732
vn 0.106610 -0.994301 0.000065
vn 0.006728 -0.979235 0.202615
vn -0.071578 -0.992454 0.099553
vn 0.085531 -0.987892 0.129439
vn 0.746964 0.662793 -0.052435
vn 0.863077 0.502014 -0.055494
vn 0.976387 0.208293 -0.057292
vn 0.989677 0.128822 -0.062801
vn -0.824320 0.565402 0.028584
vn -0.903154 0.428466 0.027015
vn -0.984783 0.172088 0.024229
vn -0.987807 0.153882 0.023606
vn -0.542087 0.084394 0.836074
vn -0.011691 0.077186 0.996948
vn -0.992965 0.118155 -0.007684
vn 0.750057 0.080572 0.656447
vn 0.995437 0.062719 -0.071913
vn -0.119540 0.077246 -0.989820
vn -0.588139 0.084166 -0.804368
vn 0.695733 0.074939 -0.714381
vn -0.545237 0.089581 0.833481
vn -0.066994 0.061984 0.995826
vn 0.713871 0.040918 0.699081
vn 0.995122 0.016021 -0.097345
vn 0.683625 0.019520 -0.729572
vn -0.104536 0.043844 -0.993554
vn -0.561288 0.073407 -0.824359
vn -0.989615 0.138171 -0.039636
vn -0.545144 0.099299 0.832441
vn -0.010479 0.063699 0.997914
vn 0.748779 0.007017 0.662782
vn 0.991488 -0.028150 -0.127117
vn 0.718391 -0.011819 -0.695539
vn -0.058165 0.045073 -0.997289
vn -0.561144 0.081603 -0.823686
vn -0.991083 0.125703 -0.044190
vn -0.550529 0.097613 0.829089
vn 0.006789 0.063729 0.997944
vn 0.776010 0.015456 0.630532
vn 0.990046 -0.010156 -0.140379
vn 0.719611 0.001949 -0.694375
vn -0.050349 0.048918 -0.997533
vn -0.582203 0.089575 -0.808094
vn -0.991690 0.127630 -0.016149
vn -0.565200 0.106433 0.818059
vn 0.043282 0.076204 0.996152
vn 0.061318 0.059454 0.996346
vn -0.552870 0.085630 0.828856
vn 0.722349 0.071793 0.687792
vn 0.762500 0.054464 0.644692
vn 0.996651 0.075849 -0.030560
vn 0.996289 0.069960 -0.050137
vn 0.714034 0.078188 -0.695731
vn 0.720619 0.073922 -0.689379
vn 0.012607 0.083624 -0.996418
vn 0.006553 0.063780 -0.997943
vn -0.576250 0.114609 -0.809198
vn -0.578995 0.090084 -0.810339
vn -0.990749 0.128412 0.043900
vn -0.992984 0.109318 0.045086
vn -0.603241 0.151043 0.783126
vn 0.040291 0.109722 0.993145
vn 0.035936 0.099595 0.994379
vn -0.589075 0.145055 0.794953
vn 0.690484 0.110485 0.714860
vn 0.714860 0.077351 0.694976
vn 0.991653 0.112547 -0.062904
vn 0.997447 0.054153 -0.046544
vn 0.687853 0.127248 -0.714609
vn 0.705640 0.074303 -0.704664
vn 0.016020 0.133178 -0.990963
vn 0.009855 0.115548 -0.993253
vn -0.604982 0.170512 -0.777768
vn -0.590398 0.162430 -0.790599
vn -0.985802 0.165560 0.027999
vn -0.985453 0.166268 0.035167
vn -0.512200 0.506569 0.693570
vn 0.017807 0.378079 0.925602
vn 0.505242 0.597091 0.623067
vn 0.545823 0.836743 -0.044033
vn 0.505138 0.573712 -0.644741
vn 0.006381 0.333374 -0.942773
vn -0.512868 0.485757 -0.707818
vn -0.637334 0.770297 0.021185
vn -0.443411 0.596466 0.669041
vn 0.015950 0.427388 0.903928
vn 0.463037 0.591557 0.660043
vn 0.649622 0.758752 -0.047815
vn 0.463097 0.545344 -0.698670
vn 0.005850 0.317182 -0.948347
vn -0.451464 0.541085 -0.709512
vn -0.617182 0.786600 0.018615
vn -0.526632 0.342188 0.778181
vn 0.015819 0.242910 0.969920
vn 0.558050 0.234890 0.795869
vn 0.957019 0.284930 -0.054121
vn 0.540101 0.176739 -0.822833
vn 0.005494 0.142937 -0.989717
vn -0.516338 0.286829 -0.806923
vn -0.868034 0.496028 0.021744
s 1
g pCube1
usemtl initialShadingGroup
f 91/195/1 92/2/2 5/3/3 4/183/4
f 92/2/2 93/5/5 6/6/6 5/3/3
f 83/7/7 84/180/8 8/9/9 7/10/10
f 84/180/8 85/179/11 9/12/12 8/9/9
f 26/171/13 27/170/14 28/15/15 29/166/16
f 27/170/14 30/169/17 31/165/18 28/15/15
f 29/166/16 28/15/15 32/163/19 33/167/20
f 28/15/15 31/165/18 34/164/21 32/163/19
f 12/162/22 13/23/23 88/176/24 89/174/25
f 13/23/23 14/26/26 87/177/27 88/176/24
f 15/156/28 16/29/29 96/30/30 97/154/31
f 16/29/29 17/32/32 95/33/33 96/30/30
f 18/144/34 19/145/35 22/36/36 21/141/37
f 19/145/35 20/143/38 23/139/39 22/36/36
f 21/141/37 22/36/36 2/40/40 1/142/41
f 22/36/36 23/139/39 3/42/42 2/40/40
f 94/43/43 95/196/33 17/199/32 24/44/44
f 93/194/5 94/43/43 24/44/44 6/197/6
f 86/178/45 87/177/27 14/26/26 11/46/46
f 85/179/11 86/178/45 11/46/46 9/12/12
f 97/31/31 98/47/47 25/48/48 15/28/28
f 98/47/47 91/1/1 4/4/4 25/48/48
f 89/175/25 90/172/49 10/50/50 12/22/22
f 90/172/49 83/7/7 7/10/10 10/50/50
f 35/51/51 36/52/52 27/14/14 26/13/13
f 42/53/53 35/51/51 26/13/13 29/16/16
f 36/52/52 37/54/54 30/17/17 27/14/14
f 37/54/54 38/55/55 31/18/18 30/17/17
f 40/56/56 41/57/57 33/20/20 32/19/19
f 41/161/57 42/53/53 29/16/16 33/168/20
f 38/55/55 39/58/58 34/21/21 31/18/18
f 39/58/58 40/56/56 32/19/19 34/21/21
f 43/59/59 44/60/60 36/52/52 35/51/51
f 44/60/60 45/61/61 37/54/54 36/52/52
f 45/61/61 46/62/62 38/55/55 37/54/54
f 46/62/62 47/63/63 39/58/58 38/55/55
f 47/63/63 48/64/64 40/56/56 39/58/58
f 48/64/64 49/65/65 41/57/57 40/56/56
f 49/160/65 50/66/66 42/53/53 41/161/57
f 50/66/66 43/59/59 35/51/51 42/53/53
f 51/67/67 52/68/68 44/60/60 43/59/59
f 52/68/68 53/69/69 45/61/61 44/60/60
f 53/69/69 54/70/70 46/62/62 45/61/61
f 54/70/70 55/71/71 47/63/63 46/62/62
f 55/71/71 56/72/72 48/64/64 47/63/63
f 56/72/72 57/73/73 49/65/65 48/64/64
f 57/159/73 58/74/74 50/66/66 49/160/65
f 58/74/74 51/67/67 43/59/59 50/66/66
f 59/75/75 60/76/76 52/68/68 51/67/67
f 60/76/76 61/77/77 53/69/69 52/68/68
f 61/77/77 62/78/78 54/70/70 53/69/69
f 62/78/78 63/79/79 55/71/71 54/70/70
f 63/79/79 64/80/80 56/72/72 55/71/71
f 64/80/80 65/81/81 57/73/73 56/72/72
f 65/152/81 66/82/82 58/74/74 57/159/73
f 66/82/82 59/75/75 51/67/67 58/74/74
f 131/83/83 132/84/84 114/85/85 107/86/86
f 132/84/84 133/87/87 113/88/88 114/85/85
f 133/87/87 134/89/89 112/90/90 113/88/88
f 134/89/89 135/91/91 111/92/92 112/90/90
f 135/91/91 136/93/93 110/94/94 111/92/92
f 136/93/93 137/147/95 109/96/96 110/94/94
f 137/95/95 138/97/97 108/98/98 109/148/96
f 138/97/97 131/83/83 107/86/86 108/98/98
f 75/99/99 76/100/100 68/101/101 67/102/102
f 76/100/100 77/103/103 69/104/104 68/101/101
f 77/103/103 78/105/105 70/106/106 69/104/104
f 78/105/105 79/107/107 71/108/108 70/106/106
f 79/107/107 80/109/109 72/110/110 71/108/108
f 80/109/109 81/157/111 73/112/112 72/110/110
f 81/111/111 82/113/113 74/114/114 73/158/112
f 82/113/113 75/99/99 67/102/102 74/114/114
f 7/10/10 8/9/9 76/100/100 75/99/99
f 8/9/9 9/12/12 77/103/103 76/100/100
f 9/12/12 11/46/46 78/105/105 77/103/103
f 11/46/46 14/26/26 79/107/107 78/105/105
f 14/26/26 13/23/23 80/109/109 79/107/107
f 13/23/23 12/162/22 81/157/111 80/109/109
f 12/22/22 10/50/50 82/113/113 81/111/111
f 10/50/50 7/10/10 75/99/99 82/113/113
f 4/183/4 5/3/3 84/8/8 83/173/7
f 5/3/3 6/6/6 85/200/11 84/8/8
f 6/197/6 24/44/44 86/45/45 85/11/11
f 24/44/44 17/199/32 87/198/27 86/45/45
f 88/24/24 87/27/27 17/32/32 16/29/29
f 89/155/25 88/24/24 16/29/29 15/156/28
f 15/28/28 25/48/48 90/49/49 89/25/25
f 25/48/48 4/4/4 83/184/7 90/49/49
f 99/192/115 100/116/116 92/2/2 91/195/1
f 100/116/116 101/117/117 93/5/5 92/2/2
f 101/191/117 102/118/118 94/43/43 93/194/5
f 102/118/118 103/193/119 95/196/33 94/43/43
f 96/30/30 95/33/33 103/119/119 104/120/120
f 97/154/31 96/30/30 104/120/120 105/153/121
f 105/121/121 106/122/122 98/47/47 97/31/31
f 106/122/122 99/115/115 91/1/1 98/47/47
f 115/182/123 116/124/124 100/116/116 99/192/115
f 116/124/124 117/125/125 101/117/117 100/116/116
f 117/189/125 118/126/126 102/118/118 101/191/117
f 118/126/126 119/190/127 103/193/119 102/118/118
f 104/120/120 103/119/119 119/127/127 120/128/128
f 105/153/121 104/120/120 120/128/128 121/151/129
f 121/129/129 122/130/130 106/122/122 105/121/121
f 122/130/130 115/123/123 99/115/115 106/122/122
f 108/98/98 107/86/86 59/75/75 66/82/82
f 109/148/96 108/98/98 66/82/82 65/152/81
f 110/94/94 109/96/96 65/81/81 64/80/80
f 111/92/92 110/94/94 64/80/80 63/79/79
f 112/90/90 111/92/92 63/79/79 62/78/78
f 113/88/88 112/90/90 62/78/78 61/77/77
f 114/85/85 113/88/88 61/77/77 60/76/76
f 107/86/86 114/85/85 60/76/76 59/75/75
f 123/181/131 124/132/132 116/124/124 115/182/123
f 124/132/132 125/188/133 117/125/125 116/124/124
f 125/133/133 126/134/134 118/126/126 117/189/125
f 126/134/134 127/186/135 119/190/127 118/126/126
f 120/128/128 119/127/127 127/135/135 128/136/136
f 121/151/129 120/128/128 128/136/136 129/149/137
f 129/137/137 130/138/138 122/130/130 121/129/129
f 130/138/138 123/131/131 115/123/123 122/130/130
f 1/185/41 2/146/40 124/132/132 123/181/131
f 2/146/40 3/140/42 125/188/133 124/132/132
f 3/201/42 23/39/39 126/134/134 125/133/133
f 23/39/39 20/187/38 127/186/135 126/134/134
f 128/136/136 127/135/135 20/38/38 19/35/35
f 129/149/137 128/136/136 19/35/35 18/150/34
f 18/34/34 21/37/37 130/138/138 129/137/137
f 21/37/37 1/41/41 123/131/131 130/138/138
f 67/102/102 68/101/101 132/84/84 131/83/83
f 68/101/101 69/104/104 133/87/87 132/84/84
f 69/104/104 70/106/106 134/89/89 133/87/87
f 70/106/106 71/108/108 135/91/91 134/89/89
f 71/108/108 72/110/110 136/93/93 135/91/91
f 72/110/110 73/112/112 137/147/95 136/93/93
f 73/158/112 74/114/114 138/97/97 137/95/95
f 74/114/114 67/102/102 131/83/83 138/97/97
